<svg width="128" height="128" version="1.1" viewBox="0 0 33.867 33.867" xmlns="http://www.w3.org/2000/svg">
 <rect x="2.8652" y="2.8652" width="28.137" height="28.137" stroke="#000" stroke-linecap="round" stroke-linejoin="round" stroke-width="3.5906"/>
 <g transform="matrix(1.4229 0 0 1.4229 26.77 -16.69)" fill="#fff" style="shape-inside:url(#rect837);white-space:pre" aria-label="&gt;$_">
  <path d="m-16.853 21.194v-0.94051l6.6249 2.4029v0.85783l-6.6249 2.4029v-0.94051l5.3227-1.8862z"/>
  <path d="m-5.531 27.958h-0.51676l-0.00517-1.5555q-0.5426-0.01034-1.0852-0.12402-0.5426-0.11886-1.0904-0.3514v-0.93017q0.5271 0.33073 1.0645 0.50126 0.5426 0.16536 1.1162 0.17053v-2.3564q-1.142-0.18603-1.664-0.63045-0.51676-0.44442-0.51676-1.2196 0-0.84232 0.56327-1.3281 0.56327-0.48576 1.6175-0.5581v-1.2144h0.51676v1.1989q0.48059 0.02067 0.93017 0.10335 0.44958 0.07751 0.8785 0.21704v0.90434q-0.42891-0.21704-0.88366-0.3359-0.44958-0.11886-0.92501-0.13953v2.2066q1.1731 0.18087 1.726 0.64595 0.55294 0.46509 0.55294 1.2712 0 0.87333-0.58911 1.3798-0.58394 0.50126-1.6898 0.57877zm-0.51676-5.5345v-2.1187q-0.59944 0.06718-0.91467 0.34106t-0.31523 0.72864q0 0.44442 0.28939 0.69246 0.29455 0.24805 0.94051 0.35657zm0.51676 0.99218v2.2376q0.65629-0.08785 0.98702-0.37207 0.3359-0.28422 0.3359-0.74931 0-0.45475-0.32039-0.72347-0.31523-0.26872-1.0025-0.39274z"/>
  <path d="m3.0266 28.16v0.73897h-5.4984v-0.73897z"/>
 </g>
</svg>
